<?xml version="1.0" encoding="UTF-8"?>
<svg id="Layer_1" xmlns="http://www.w3.org/2000/svg" version="1.1" viewBox="0 0 97.6 96">
  <!-- Generator: Adobe Illustrator 30.0.0, SVG Export Plug-In . SVG Version: 2.1.1 Build 123)  -->
  <defs>
    <style>
      .st0 {
        fill: #43d9ad;
      }
    </style>
  </defs>
  <path class="st0" d="M48.9,0C22.24,0,.8,22,.8,49.2c0,21.8,13.77,40.2,32.85,46.7,2.36.5,3.25-1.1,3.25-2.4,0-1.1-.1-5.1-.1-9.1-13.38,2.9-16.13-5.9-16.13-5.9-2.16-5.7-5.31-7.2-5.31-7.2-4.33-3,.3-3,.3-3,4.82.3,7.38,5.1,7.38,5.1,4.33,7.5,11.21,5.4,13.97,4.1.39-3.2,1.67-5.4,3.05-6.6-10.62-1.1-21.84-5.4-21.84-24.3,0-5.4,1.87-9.8,4.92-13.2-.49-1.2-2.16-6.3.49-13,0,0,4.03-1.3,13.18,5.1,3.84-1.1,7.97-1.6,12-1.6s8.16.6,12,1.6c9.15-6.4,13.18-5.1,13.18-5.1,2.66,6.8.98,11.8.49,13,3.15,3.4,4.92,7.8,4.92,13.2,0,18.9-11.21,23.1-21.93,24.3,1.77,1.5,3.25,4.5,3.25,9.1,0,6.6-.1,11.9-.1,13.5,0,1.3.89,2.9,3.25,2.4,19.18-6.5,32.95-24.9,32.95-46.7.1-27.2-21.44-49.2-47.9-49.2Z"/>
</svg>