<?xml version="1.0" encoding="utf-8"?>
<!-- Generator: Adobe Illustrator 30.1.0, SVG Export Plug-In . SVG Version: 9.03 Build 0)  -->
<svg version="1.1" id="Calque_1" xmlns="http://www.w3.org/2000/svg" xmlns:xlink="http://www.w3.org/1999/xlink" x="0px" y="0px"
	 viewBox="0 0 24 24" style="enable-background:new 0 0 24 24;" xml:space="preserve">
<style type="text/css">
	.st0{fill:#62748E;}
</style>
<path class="st0" d="M10,6v2H5v11h11v-5h2v6c0,0.27-0.11,0.52-0.29,0.71S17.27,21,17,21H4c-0.27,0-0.52-0.11-0.71-0.29
	C3.11,20.52,3,20.27,3,20V7c0-0.27,0.11-0.52,0.29-0.71C3.48,6.11,3.73,6,4,6H10z M21,3v8h-2V6.41l-7.79,7.79l-1.41-1.41L17.58,5H13
	V3H21z"/>
</svg>
