<?xml version="1.0" encoding="utf-8"?>
<!-- Generator: Adobe Illustrator 30.1.0, SVG Export Plug-In . SVG Version: 9.03 Build 0)  -->
<svg version="1.1" id="Calque_1" xmlns="http://www.w3.org/2000/svg" xmlns:xlink="http://www.w3.org/1999/xlink" x="0px" y="0px"
	 viewBox="0 0 24 24" style="enable-background:new 0 0 24 24;" xml:space="preserve">
<style type="text/css">
	.st0{fill:#62748E;}
</style>
<path class="st0" d="M6,3C4.34,3,3,4.34,3,6v12c0,1.66,1.34,3,3,3h12c1.66,0,3-1.34,3-3V6c0-1.66-1.34-3-3-3H6z M13.33,16.06
	c0.72,0.58,1.44,0.87,2.16,0.86c0.44,0,0.78-0.08,1.01-0.24c0.23-0.15,0.34-0.37,0.34-0.66c0-0.29-0.11-0.54-0.34-0.75
	c-0.23-0.21-0.68-0.41-1.33-0.62c-0.78-0.23-1.39-0.52-1.82-0.88c-0.42-0.36-0.63-0.86-0.64-1.51c0-0.61,0.26-1.12,0.79-1.53
	c0.51-0.41,1.17-0.62,1.97-0.62c1.11,0,2.01,0.27,2.68,0.81l-0.77,1.2c-0.27-0.21-0.58-0.37-0.93-0.46
	c-0.35-0.11-0.67-0.16-0.95-0.16c-0.38,0-0.69,0.07-0.91,0.21c-0.23,0.14-0.34,0.32-0.34,0.55c0,0.25,0.14,0.46,0.42,0.64
	c0.28,0.17,0.76,0.36,1.43,0.56c0.81,0.24,1.39,0.56,1.74,0.97s0.52,0.92,0.52,1.54c0,0.64-0.25,1.19-0.74,1.65
	c-0.48,0.45-1.19,0.69-2.11,0.72c-1.21,0-2.22-0.36-3.04-1.09L13.33,16.06z M7.8,16.69c0.23,0.15,0.52,0.22,0.85,0.22
	c0.34,0,0.63-0.1,0.86-0.3c0.23-0.21,0.34-0.56,0.34-1.07v-5.3h1.49v5.59c-0.02,0.87-0.27,1.49-0.75,1.87
	c-0.27,0.23-0.57,0.39-0.89,0.48c-0.32,0.1-0.63,0.14-0.93,0.14c-0.55,0-1.04-0.1-1.46-0.29c-0.45-0.21-0.84-0.57-1.14-1.09
	l1.03-0.85C7.38,16.37,7.58,16.56,7.8,16.69z"/>
</svg>
