<?xml version="1.0" encoding="utf-8"?>
<!-- Generator: Adobe Illustrator 30.1.0, SVG Export Plug-In . SVG Version: 9.03 Build 0)  -->
<svg version="1.1" id="Calque_1" xmlns="http://www.w3.org/2000/svg" xmlns:xlink="http://www.w3.org/1999/xlink" x="0px" y="0px"
	 viewBox="0 0 24 24" style="enable-background:new 0 0 24 24;" xml:space="preserve">
<style type="text/css">
	.st0{fill:#62748E;}
</style>
<path class="st0" d="M5.33,5.33C5.33,3.49,6.83,2,8.67,2H12h0h3.33c1.84,0,3.33,1.49,3.33,3.33s-1.49,3.33-3.33,3.33H12h0V12v3.33
	v3.33C12,20.51,10.51,22,8.67,22c-1.84,0-3.33-1.49-3.33-3.33c0-1.84,1.49-3.33,3.33-3.33c-1.84,0-3.33-1.49-3.33-3.33
	c0-1.84,1.49-3.33,3.33-3.33h0C6.83,8.67,5.33,7.17,5.33,5.33z M12,12c0,1.84,1.49,3.33,3.33,3.33c1.84,0,3.33-1.49,3.33-3.33
	c0-1.84-1.49-3.33-3.33-3.33C13.49,8.67,12,10.16,12,12z"/>
</svg>
