<?xml version="1.0" encoding="utf-8"?>
<!-- Generator: Adobe Illustrator 30.1.0, SVG Export Plug-In . SVG Version: 9.03 Build 0)  -->
<svg version="1.1" id="Calque_1" xmlns="http://www.w3.org/2000/svg" xmlns:xlink="http://www.w3.org/1999/xlink" x="0px" y="0px"
	 viewBox="0 0 24 24" style="enable-background:new 0 0 24 24;" xml:space="preserve">
<style type="text/css">
	.st0{fill:#62748E;}
</style>
<polygon class="st0" points="10.36,10.07 11.24,12.76 9.49,12.76 "/>
<path class="st0" d="M17.88,3H6.12C4.4,3,3,4.4,3,6.12v11.76C3,19.6,4.4,21,6.12,21h11.76C19.6,21,21,19.6,21,17.88V6.12
	C21,4.4,19.6,3,17.88,3z M12.31,16.09l-0.4-1.25H8.82l-0.41,1.25h-2.4L9.1,7.76h2.7l3,8.33H12.31z M17.33,16.09H15.1V9.54h2.23
	V16.09z M17.1,9.08c-0.19,0.19-0.45,0.3-0.73,0.3h-0.31c-0.57,0-1.03-0.46-1.03-1.03c0-0.29,0.12-0.54,0.3-0.73
	c0.19-0.19,0.45-0.3,0.73-0.3h0.31c0.57,0,1.03,0.46,1.03,1.03C17.41,8.63,17.29,8.89,17.1,9.08L17.1,9.08z"/>
</svg>
