<?xml version="1.0" encoding="UTF-8"?>
<svg id="Calque_1" xmlns="http://www.w3.org/2000/svg" version="1.1" viewBox="0 0 24 24">
  <!-- Generator: Adobe Illustrator 30.0.0, SVG Export Plug-In . SVG Version: 2.1.1 Build 123)  -->
  <defs>
    <style>
      .st0 {
        fill: #43d9ad;
      }
    </style>
  </defs>
  <path class="st0" d="M20.85,0H1.53C.82.07.17.8.11,1.51v20.89c.09.78.73,1.47,1.53,1.52h19.08c.95-.06,1.57-.88,1.58-1.8V1.74c-.06-.91-.56-1.56-1.45-1.75ZM6.66,20.36h-3.27v-11.39h3.27v11.39ZM4.85,7.4c-1.73-.13-2.31-2.61-.97-3.69.27-.22,1.12-.55,1.43-.4.27.12.63.17.88.4,1.44,1.25.63,3.85-1.34,3.69ZM19,20.36h-3.28v-6.23c-.06-1.4-.47-2.56-2.12-2.31-1.3.19-1.54,1.52-1.59,2.63v5.91s-3.27,0-3.27,0v-11.39h3.16v1.56c.05.06.14-.2.16-.22,1.06-1.62,2.96-1.98,4.72-1.33,1.83.67,2.14,2.81,2.22,4.53v6.86Z"/>
  <path class="st0" d="M23.65,19.65c-.06-.14-.31-.07-.44-.09v.68h.08v-.29c.15-.13.27.4.37.29.04-.04-.19-.3-.17-.31.16,0,.21-.16.16-.28ZM23.29,19.87v-.23h.23s.02.2.02.2l-.25.03ZM23.65,19.65c-.06-.14-.31-.07-.44-.09v.68h.08v-.29c.15-.13.27.4.37.29.04-.04-.19-.3-.17-.31.16,0,.21-.16.16-.28ZM23.29,19.87v-.23h.23s.02.2.02.2l-.25.03ZM23.29,19.25c-.21.04-.43.29-.46.5-.1.55.43.97.92.67.51-.32.24-1.29-.46-1.17ZM23.22,20.39c-.64-.25-.15-1.39.44-1,0,0,.1.11.12.13.32.43-.01,1.08-.56.87ZM23.65,19.65c-.06-.14-.31-.07-.44-.09v.68h.08v-.29c.15-.13.27.4.37.29.04-.04-.19-.3-.17-.31.16,0,.21-.16.16-.28ZM23.29,19.87v-.23h.23s.02.2.02.2l-.25.03Z"/>
  <path class="st0" d="M23.29,19.25c-.21.04-.43.29-.46.5-.1.55.43.97.92.67.51-.32.24-1.29-.46-1.17ZM23.22,20.39c-.64-.25-.15-1.39.44-1,0,0,.1.11.12.13.32.43-.01,1.08-.56.87Z"/>
  <path class="st0" d="M23.65,19.65c-.06-.14-.31-.07-.44-.09v.68h.08v-.29c.15-.13.27.4.37.29.04-.04-.19-.3-.17-.31.16,0,.21-.16.16-.28ZM23.29,19.87v-.23h.23s.02.2.02.2l-.25.03Z"/>
</svg>