<?xml version="1.0" encoding="UTF-8"?>
<svg id="Calque_1" xmlns="http://www.w3.org/2000/svg" version="1.1" viewBox="0 0 24 24">
  <!-- Generator: Adobe Illustrator 30.0.0, SVG Export Plug-In . SVG Version: 2.1.1 Build 123)  -->
  <defs>
    <style>
      .st0 {
        fill: #6eabed;
      }

      .st1 {
        fill: #43d9ad;
      }
    </style>
  </defs>
  <path class="st1" d="M22.28,8.78h0s-3.16.22-3.16.22v-.02h-.01c-.29-1.26-.91-2.37-1.86-3.31-1.36-1.35-3.04-2.02-5.04-2.02-1.11,0-2.18.23-3.22.68s-1.9,1.07-2.6,1.85c-.62.7-1.05,1.46-1.31,2.27-.25.81-.38,1.85-.38,3.12v6.39l-.06-.06c-1.98-1.97-2.96-4.41-2.96-7.32s1.01-5.4,3.02-7.4C6.71,1.17,9.2.17,12.15.17s5.33.98,7.27,2.94c1.35,1.36,2.3,3.25,2.86,5.67Z"/>
  <path class="st0" d="M19.12,8.98v.02h-.01v-.02h.01Z"/>
  <path class="st1" d="M10.57,20.76v-5.93c.3.1.62.16.95.18v2l.89.02c2.25,0,3.93-.55,5.05-1.66,1.19-1.17,1.8-2.69,1.83-4.56l3.03.08h.01c-.41,3.17-1.5,5.63-3.3,7.36s-4.14,2.6-7.02,2.6c-.5,0-.98-.03-1.44-.09Z"/>
  <path class="st1" d="M13.29,10.49c0-.83-.45-1.24-1.36-1.24s-1.37.57-1.37,1.7v3.87c-.63-.2-1.19-.56-1.67-1.06-.8-.84-1.2-1.91-1.2-3.2s.41-2.44,1.22-3.3,1.84-1.3,3.1-1.3c1.96,0,3.29,1.07,4,3.23l3.1-.21v.02h.01c.12.52.18,1.08.18,1.66h0v.15l-3.1-.08c-.14,1.39-.57,2.45-1.3,3.19-.74.74-1.73,1.11-2.97,1.11-.14,0-.27,0-.4-.02v-3.16c1.18,0,1.77-.45,1.77-1.36Z"/>
  <path class="st1" d="M10.56,20.76v3.07h-5.86v-5.87c1.63,1.6,3.58,2.53,5.86,2.8Z"/>
</svg>